:SAMPLES-PER-SECOND 30
:FULLY-SPECIFIED
:DEGREES
226
root  52.6854 37.3334 0.855764 177.623 -73.3647 177.024
RightUpLeg  -15.6845 -16.2141 -1.60658
RightLeg  42.7074 -6.3286 -6.5202
RightFoot  -19.3395 -0.0759129 0.785855
RightToes  2.32829e-010 0 -3.6325e-017
Spine  43.5743 -4.52268 8.98808
Spine1  1.57959 -0.827052 -1.82069
HEad  -22.2451 11.0489 -12.2902
LeftShoulder1  8.32537 -15.5041 -37.655
LeftArm  -41.8048 -11.9496 -22.8405
LeftForeArm  50.4023 -78.1768 -92.2256
LeftHand  -0.244104 0.0205437 5.32207
RightShoulder  5.43801 11.0443 31.4295
RightArm  -24.2674 -1.11893 20.8059
RightForeArm  110.528 67.6439 149.454
RightHand  -1.12662 -14.076 13.2982
LeftUpLeg  -25.3361 28.1825 -0.78936
LeftLeg  12.5461 10.2306 -0.904355
LeftFoot  13.6672 -1.37965 5.83497
LeftToes  1.42787e-010 7.94111e-011 2.6399e-011
227
root  52.1976 37.5613 0.687874 177.389 -73.4204 177.181
RightUpLeg  -13.7554 -16.7733 -1.92799
RightLeg  40.9874 -6.21123 -6.04367
RightFoot  -19.2311 -0.0760953 0.784541
RightToes  2.32829e-010 0 -3.6325e-017
Spine  41.1054 -4.11444 8.65473
Spine1  2.37957 -0.847662 -1.31053
HEad  -23.2312 12.1801 -12.8045
LeftShoulder1  8.04904 -14.8823 -37.6383
LeftArm  -42.1749 -7.32136 -16.5668
LeftForeArm  68.871 -77.4589 -110.099
LeftHand  -0.244104 0.0205437 5.32207
RightShoulder  5.44622 10.9372 31.7662
RightArm  -21.2414 -3.82597 21.7091
RightForeArm  111.451 66.4154 151.239
RightHand  -0.595338 -12.3153 8.4162
LeftUpLeg  -24.1462 28.1461 -0.199006
LeftLeg  12.5746 10.2116 -0.808438
LeftFoot  12.5851 -1.0982 4.81451
LeftToes  1.42787e-010 7.94111e-011 2.6399e-011
228
root  51.7152 37.7161 0.570328 179.74 -72.9228 175.561
RightUpLeg  -13.2849 -17.0405 -2.5989
RightLeg  39.9519 -5.65335 -5.34137
RightFoot  -19.4813 -0.0693459 0.875858
RightToes  2.32829e-010 0 -3.6325e-017
Spine  38.1025 -3.24805 7.67253
Spine1  3.11753 -0.729202 -0.59673
HEad  -24.1595 13.3645 -13.4261
LeftShoulder1  7.92135 -14.3977 -38.093
LeftArm  -41.2216 -2.989 -10.3889
LeftForeArm  87.4366 -75.7055 -125.661
LeftHand  -0.244104 0.0205437 5.32207
RightShoulder  5.49066 10.8997 32.175
RightArm  -18.9204 -4.94037 22.5299
RightForeArm  108.079 66.2124 151.203
RightHand  -0.209305 -10.7622 3.13164
LeftUpLeg  -24.445 29.0189 -1.09203
LeftLeg  12.9943 9.68172 -0.315996
LeftFoot  11.4818 -0.831824 3.77069
LeftToes  1.42787e-010 7.94111e-011 2.6399e-011
229
root  51.2242 37.8135 0.512891 -177.235 -72.3116 173.503
RightUpLeg  -13.3231 -17.3942 -3.51333
RightLeg  39.2772 -4.72757 -4.4185
RightFoot  -19.9547 -0.0400381 1.2625
RightToes  2.32829e-010 0 -3.6325e-017
Spine  35.0441 -2.3551 6.83737
Spine1  3.89429 -0.438069 -0.088454
HEad  -25.1767 13.9534 -13.996
LeftShoulder1  7.80432 -14.0226 -38.3613
LeftArm  -37.7749 0.302904 -6.01739
LeftForeArm  99.3094 -73.8844 -134.694
LeftHand  -0.244104 0.0205437 5.32207
RightShoulder  5.54139 10.8584 32.639
RightArm  -17.8241 -5.73289 22.9563
RightForeArm  106.093 66.2452 150.994
RightHand  -0.0341725 -9.45587 -0.372035
LeftUpLeg  -25.8442 30.8243 -3.19365
LeftLeg  14.094 7.99992 0.670877
LeftFoot  9.97415 -0.66768 3.22567
LeftToes  1.42787e-010 7.94111e-011 2.6399e-011
230
root  50.7184 37.8926 0.50035 -176.269 -72.0909 172.979
RightUpLeg  -12.5693 -18.0326 -4.22051
RightLeg  38.5056 -4.06594 -3.74401
RightFoot  -20.2569 -0.0272116 1.41156
RightToes  2.32829e-010 0 -3.6325e-017
Spine  32.8485 -1.90049 6.83347
Spine1  4.64175 -0.138385 0.0342032
HEad  -26.2403 13.9922 -14.5128
LeftShoulder1  7.67977 -13.7766 -38.2796
LeftArm  -32.0492 2.6589 -4.10782
LeftForeArm  105.396 -72.7061 -138.965
LeftHand  -0.244104 0.0205437 5.32207
RightShoulder  5.55261 10.763 32.9753
RightArm  -17.3489 -6.26992 23.1126
RightForeArm  106.068 66.5123 150.629
RightHand  0.00500896 -8.98612 -1.63387
LeftUpLeg  -27.0187 32.4844 -4.82952
LeftLeg  15.7914 5.92218 1.7384
LeftFoot  7.96158 -0.607535 3.28985
LeftToes  1.42787e-010 7.94111e-011 2.6399e-011
231
root  50.2013 37.9728 0.509551 -177.452 -72.2929 174.002
RightUpLeg  -10.8332 -18.5837 -4.62105
RightLeg  37.4804 -3.90809 -3.48716
RightFoot  -20.4437 -0.0268749 1.40036
RightToes  2.32829e-010 0 -3.6325e-017
Spine  31.6567 -1.83407 7.44229
Spine1  5.13895 0.0913191 -0.143605
HEad  -26.9157 13.9306 -14.7094
LeftShoulder1  7.69551 -13.7428 -38.4486
LeftArm  -26.2403 4.48747 -3.89495
LeftForeArm  107.001 -72.3543 -140.07
LeftHand  -0.244104 0.0205437 5.32207
RightShoulder  5.56181 10.6908 33.2372
RightArm  -16.8954 -6.21914 22.8497
RightForeArm  105.461 67.2983 149.458
RightHand  0.00851929 -9.11521 -1.7328
LeftUpLeg  -26.8669 32.318 -4.51299
LeftLeg  17.5929 5.52155 2.33778
LeftFoot  6.11034 -0.584534 3.56402
LeftToes  1.42787e-010 7.94111e-011 2.6399e-011
232
root  49.6755 38.0459 0.528052 -179.034 -72.7346 175.23
RightUpLeg  -8.77425 -18.6502 -4.9845
RightLeg  36.3206 -3.93813 -3.37583
RightFoot  -20.7414 0.0320399 2.09473
RightToes  2.32829e-010 0 -3.6325e-017
Spine  30.8627 -1.82975 8.06292
Spine1  5.37796 0.341432 -0.561739
HEad  -26.9901 13.8086 -14.237
LeftShoulder1  7.96267 -13.9799 -39.3313
LeftArm  -22.2451 5.5593 -4.24394
LeftForeArm  105.388 -72.8233 -138.635
LeftHand  -0.244104 0.0205437 5.32207
RightShoulder  5.59688 10.688 33.4908
RightArm  -16.3278 -5.85946 22.0255
RightForeArm  103.459 68.462 147.465
RightHand  0.0178122 -9.17019 -1.99068
LeftUpLeg  -26.0029 31.155 -3.43722
LeftLeg  19.0581 6.06412 2.6497
LeftFoot  5.03517 -0.563181 3.69907
LeftToes  1.42787e-010 7.94111e-011 2.6399e-011
233
root  49.1303 38.1113 0.545896 179.826 -73.5583 175.953
RightUpLeg  -6.62342 -18.5242 -5.46444
RightLeg  35.1693 -4.25896 -3.48357
RightFoot  -20.9283 0.130821 3.25347
RightToes  2.32829e-010 0 -3.6325e-017
Spine  30.2348 -1.88964 8.46658
Spine1  5.57995 0.53964 -1.26325
HEad  -26.8583 13.4125 -13.0616
LeftShoulder1  8.14008 -14.1361 -39.9032
LeftArm  -20.0233 5.60288 -5.33856
LeftForeArm  102.856 -73.7492 -135.633
LeftHand  -0.244104 0.0205437 5.32207
RightShoulder  5.4919 10.5471 33.1413
RightArm  -15.5947 -5.53322 21.6979
RightForeArm  100.755 69.6873 145.038
RightHand  0.0424417 -8.94905 -2.86056
LeftUpLeg  -25.0038 30.0147 -2.70879
LeftLeg  20.1203 6.29114 2.87124
LeftFoot  4.4895 -0.552959 3.7798
LeftToes  1.42787e-010 7.94111e-011 2.6399e-011
234
root  48.5659 38.1736 0.536412 179.589 -74.8159 175.835
RightUpLeg  -4.57513 -18.6583 -6.05092
RightLeg  34.2423 -5.27677 -4.11207
RightFoot  -20.854 0.164653 3.67554
RightToes  2.32829e-010 0 -3.6325e-017
Spine  29.7273 -1.94334 8.32263
Spine1  5.57339 0.580477 -1.89581
HEad  -26.6456 12.7464 -11.3743
LeftShoulder1  8.25072 -14.206 -40.3214
LeftArm  -18.4253 5.02172 -6.10221
LeftForeArm  100.324 -74.7257 -132.011
LeftHand  -0.244104 0.0205437 5.32207
RightShoulder  5.42007 10.456 32.8832
RightArm  -14.6932 -5.31603 21.2481
RightForeArm  96.7892 70.9815 141.971
RightHand  0.0691233 -8.63814 -3.9096
LeftUpLeg  -24.057 29.1838 -2.47359
LeftLeg  20.872 5.92979 2.8176
LeftFoot  3.93978 -0.559301 3.98995
LeftToes  1.42787e-010 7.94111e-011 2.6399e-011
235
root  47.9945 38.2298 0.50505 -179.138 -76.4103 174.401
RightUpLeg  -2.87583 -19.2328 -6.90407
RightLeg  33.7359 -6.31085 -4.77651
RightFoot  -20.8302 0.193429 4.00976
RightToes  2.32829e-010 0 -3.6325e-017
Spine  29.488 -1.88698 7.43306
Spine1  5.09748 0.469402 -2.20195
HEad  -26.405 11.8236 -9.44327
LeftShoulder1  8.32291 -14.2462 -40.6054
LeftArm  -16.9052 4.26424 -6.30052
LeftForeArm  98.2715 -75.3935 -129.106
LeftHand  -0.244104 0.0205437 5.32207
RightShoulder  5.40975 10.4539 32.815
RightArm  -13.8581 -5.26876 20.4374
RightForeArm  91.3571 72.3947 137.888
RightHand  0.0816418 -8.45808 -4.32392
LeftUpLeg  -23.3407 28.7499 -2.82223
LeftLeg  21.3633 4.92163 2.44721
LeftFoot  3.34272 -0.574876 4.30215
LeftToes  1.42787e-010 7.94111e-011 2.6399e-011
236
root  47.4459 38.2665 0.502608 -175.923 -78.0801 171.356
RightUpLeg  -2.34073 -19.9548 -8.09889
RightLeg  34.5914 -6.33698 -4.9314
RightFoot  -20.44 0.357464 6.27441
RightToes  2.32829e-010 0 -3.6325e-017
Spine  29.5332 -1.70883 6.2385
Spine1  4.19712 0.408318 -2.50923
HEad  -26.2953 10.4598 -7.58338
LeftShoulder1  8.38119 -14.3984 -40.5366
LeftArm  -15.534 3.33865 -6.5414
LeftForeArm  97.3365 -75.7404 -127.471
LeftHand  -0.244104 0.0205437 5.32207
RightShoulder  5.38072 10.4469 32.6263
RightArm  -13.3293 -5.58072 19.3462
RightForeArm  85.3218 73.78 132.915
RightHand  0.0649737 -8.6362 -3.61459
LeftUpLeg  -23.0395 28.3368 -3.71391
LeftLeg  21.6816 3.79185 1.98882
LeftFoot  2.93707 -0.609577 4.72137
LeftToes  1.42787e-010 7.94111e-011 2.6399e-011
237
root  46.9588 38.2788 0.580443 -171.001 -79.3924 167.084
RightUpLeg  -4.4981 -20.3753 -9.29931
RightLeg  38.7671 -6.00222 -5.44286
RightFoot  -17.7195 0.40213 9.53262
RightToes  2.32829e-010 0 -3.6325e-017
Spine  29.6413 -1.45676 5.32644
Spine1  3.15398 0.540743 -3.06187
HEad  -26.4509 8.78294 -6.25866
LeftShoulder1  8.42584 -14.6883 -40.0627
LeftArm  -14.4445 2.29642 -7.31682
LeftForeArm  96.8147 -76.1507 -125.515
LeftHand  -0.244104 0.0205437 5.32207
RightShoulder  5.30083 10.4003 32.1803
RightArm  -12.9517 -5.93345 18.087
RightForeArm  78.9145 75.0664 126.981
RightHand  0.0196104 -9.43675 -1.99589
LeftUpLeg  -23.3528 27.7544 -5.05658
LeftLeg  21.8887 3.14568 1.72144
LeftFoot  2.65192 -0.677188 5.38302
LeftToes  1.42787e-010 7.94111e-011 2.6399e-011
238
root  46.5666 38.2619 0.730603 -165.825 -80.0064 162.836
RightUpLeg  -9.78575 -20.1544 -10.1184
RightLeg  46.6228 -6.15099 -7.28335
RightFoot  -11.3016 -0.0557677 9.99037
RightToes  2.32829e-010 0 -3.6325e-017
Spine  29.9973 -1.19221 4.67873
Spine1  2.10875 0.75479 -3.62892
HEad  -26.8801 7.44545 -5.78882
LeftShoulder1  8.42364 -14.9355 -39.4605
LeftArm  -13.7105 1.52055 -8.46718
LeftForeArm  94.323 -76.913 -121.026
LeftHand  -0.244104 0.0205437 5.32207
RightShoulder  5.22866 10.403 31.6518
RightArm  -12.3845 -5.41596 16.8017
RightForeArm  70.477 76.3375 118.798
RightHand  -0.0362215 -10.5205 -0.447827
LeftUpLeg  -24.1351 27.3062 -6.55078
LeftLeg  22.1574 3.0788 1.71028
LeftFoot  2.15557 -0.750232 6.22551
LeftToes  1.42787e-010 7.94111e-011 2.6399e-011
239
root  46.2886 38.2019 0.893055 -162.574 -80.2046 160.06
RightUpLeg  -16.0006 -19.331 -10.5369
RightLeg  54.8072 -5.57196 -8.78885
RightFoot  -3.8176 -0.465585 6.74776
RightToes  2.32829e-010 0 -3.6325e-017
Spine  31.4637 -1.12846 4.06154
Spine1  1.11618 0.792441 -4.09229
HEad  -27.8081 6.84334 -6.0179
LeftShoulder1  8.37973 -15.0301 -39.0125
LeftArm  -13.1967 1.09039 -9.60311
LeftForeArm  88.1074 -77.8116 -113.46
LeftHand  -0.244104 0.0205437 5.32207
RightShoulder  5.20975 10.5198 31.2
RightArm  -11.5801 -3.57211 15.7866
RightForeArm  58.6393 77.4553 106.957
RightHand  -0.0622181 -10.9127 0.0529125
LeftUpLeg  -24.7392 27.1369 -7.56873
LeftLeg  22.8697 3.21232 1.82076
LeftFoot  1.34421 -0.781375 6.94646
LeftToes  1.42787e-010 7.94111e-011 2.6399e-011
240
root  46.1185 38.1215 1.03654 -160.201 -80.2224 158.226
RightUpLeg  -21.8835 -18.2259 -10.5121
RightLeg  59.7532 -3.90065 -7.69848
RightFoot  -0.284718 -0.351297 3.47035
RightToes  2.32829e-010 0 -3.6325e-017
Spine  33.3368 -1.15169 3.40386
Spine1  0.430172 0.693159 -4.36102
HEad  -29.6986 6.61226 -6.50453
LeftShoulder1  8.38507 -15.1338 -38.7995
LeftArm  -12.5122 0.400571 -10.6217
LeftForeArm  78.508 -78.5048 -103.447
LeftHand  -0.244104 0.0205437 5.32207
RightShoulder  5.22921 10.7121 30.8297
RightArm  -10.7628 -1.03997 15.2575
RightForeArm  44.9688 78.0061 92.4678
RightHand  -0.0387921 -10.1278 -0.402054
LeftUpLeg  -25.6598 27.0597 -8.46783
LeftLeg  23.7223 3.33025 1.93793
LeftFoot  0.704087 -0.790386 7.43814
LeftToes  1.42787e-010 7.94111e-011 2.6399e-011
